<mxfile host="app.diagrams.net" modified="2021-03-05T14:47:09.078Z" agent="5.0 (Windows NT 10.0; Win64; x64) AppleWebKit/537.36 (KHTML, like Gecko) Chrome/88.0.4324.190 Safari/537.36" etag="TEUlS1QVHXAix1S0nrrA" version="14.4.4" type="github">
  <diagram id="prtHgNgQTEPvFCAcTncT" name="Page-1">
    <mxGraphModel dx="782" dy="1676" grid="1" gridSize="10" guides="1" tooltips="1" connect="1" arrows="1" fold="1" page="1" pageScale="1" pageWidth="827" pageHeight="1169" math="0" shadow="0">
      <root>
        <mxCell id="0" />
        <mxCell id="1" parent="0" />
        <mxCell id="dNxyNK7c78bLwvsdeMH5-19" value="" style="swimlane;html=1;childLayout=stackLayout;resizeParent=1;resizeParentMax=0;horizontal=0;startSize=20;horizontalStack=0;" parent="1" vertex="1">
          <mxGeometry x="120" y="120" width="750" height="850" as="geometry">
            <mxRectangle x="120" y="120" width="30" height="50" as="alternateBounds" />
          </mxGeometry>
        </mxCell>
        <mxCell id="dNxyNK7c78bLwvsdeMH5-20" value="Canal Web" style="swimlane;html=1;startSize=20;horizontal=0;" parent="dNxyNK7c78bLwvsdeMH5-19" vertex="1">
          <mxGeometry x="20" width="730" height="340" as="geometry" />
        </mxCell>
        <mxCell id="eOHJWus52CCIsgXpMGxx-12" style="edgeStyle=orthogonalEdgeStyle;rounded=0;orthogonalLoop=1;jettySize=auto;html=1;" edge="1" parent="dNxyNK7c78bLwvsdeMH5-20" source="eOHJWus52CCIsgXpMGxx-6">
          <mxGeometry relative="1" as="geometry">
            <mxPoint x="120" y="60" as="targetPoint" />
          </mxGeometry>
        </mxCell>
        <mxCell id="eOHJWus52CCIsgXpMGxx-6" value="inicio" style="ellipse;whiteSpace=wrap;html=1;fillColor=#d5e8d4;strokeColor=#82b366;" vertex="1" parent="dNxyNK7c78bLwvsdeMH5-20">
          <mxGeometry x="40" y="40" width="40" height="40" as="geometry" />
        </mxCell>
        <mxCell id="eOHJWus52CCIsgXpMGxx-30" value="&#xa;&#xa;&lt;span style=&quot;color: rgb(0, 0, 0); font-family: helvetica; font-size: 12px; font-style: normal; font-weight: 400; letter-spacing: normal; text-align: center; text-indent: 0px; text-transform: none; word-spacing: 0px; background-color: rgb(248, 249, 250); display: inline; float: none;&quot;&gt;Listar Produtos&lt;/span&gt;&#xa;&#xa;" style="rounded=1;whiteSpace=wrap;html=1;" vertex="1" parent="dNxyNK7c78bLwvsdeMH5-20">
          <mxGeometry x="320" y="40" width="90" height="40" as="geometry" />
        </mxCell>
        <mxCell id="eOHJWus52CCIsgXpMGxx-40" value="Cadastrar Produto" style="rounded=1;whiteSpace=wrap;html=1;" vertex="1" parent="dNxyNK7c78bLwvsdeMH5-20">
          <mxGeometry x="440" y="150" width="90" height="40" as="geometry" />
        </mxCell>
        <mxCell id="eOHJWus52CCIsgXpMGxx-43" value="Dados Validados" style="shape=mxgraph.bpmn.shape;html=1;verticalLabelPosition=bottom;labelBackgroundColor=#ffffff;verticalAlign=top;align=center;perimeter=rhombusPerimeter;background=gateway;outlineConnect=0;outline=none;symbol=exclusiveGw;fillColor=#fff2cc;strokeColor=#d6b656;" vertex="1" parent="dNxyNK7c78bLwvsdeMH5-20">
          <mxGeometry x="320" y="190" width="50" height="50" as="geometry" />
        </mxCell>
        <mxCell id="eOHJWus52CCIsgXpMGxx-77" value="OK" style="edgeStyle=orthogonalEdgeStyle;rounded=0;orthogonalLoop=1;jettySize=auto;html=1;entryX=0;entryY=0.5;entryDx=0;entryDy=0;" edge="1" parent="dNxyNK7c78bLwvsdeMH5-20" source="eOHJWus52CCIsgXpMGxx-82" target="eOHJWus52CCIsgXpMGxx-30">
          <mxGeometry relative="1" as="geometry" />
        </mxCell>
        <mxCell id="eOHJWus52CCIsgXpMGxx-64" value="Login" style="rounded=1;whiteSpace=wrap;html=1;" vertex="1" parent="dNxyNK7c78bLwvsdeMH5-20">
          <mxGeometry x="120" y="40" width="80" height="40" as="geometry" />
        </mxCell>
        <mxCell id="eOHJWus52CCIsgXpMGxx-78" value="" style="image;html=1;image=img/lib/clip_art/computers/Database_128x128.png" vertex="1" parent="dNxyNK7c78bLwvsdeMH5-20">
          <mxGeometry x="140" y="170" width="40" height="40" as="geometry" />
        </mxCell>
        <mxCell id="eOHJWus52CCIsgXpMGxx-81" style="edgeStyle=orthogonalEdgeStyle;rounded=0;orthogonalLoop=1;jettySize=auto;html=1;entryX=0;entryY=0.5;entryDx=0;entryDy=0;" edge="1" parent="dNxyNK7c78bLwvsdeMH5-20" source="eOHJWus52CCIsgXpMGxx-64" target="eOHJWus52CCIsgXpMGxx-78">
          <mxGeometry relative="1" as="geometry">
            <mxPoint x="340" y="180" as="sourcePoint" />
            <mxPoint x="460" y="180" as="targetPoint" />
          </mxGeometry>
        </mxCell>
        <mxCell id="eOHJWus52CCIsgXpMGxx-82" value="Dados Validados" style="shape=mxgraph.bpmn.shape;html=1;verticalLabelPosition=bottom;labelBackgroundColor=#ffffff;verticalAlign=top;align=center;perimeter=rhombusPerimeter;background=gateway;outlineConnect=0;outline=none;symbol=exclusiveGw;fillColor=#fff2cc;strokeColor=#d6b656;" vertex="1" parent="dNxyNK7c78bLwvsdeMH5-20">
          <mxGeometry x="224" y="130" width="50" height="50" as="geometry" />
        </mxCell>
        <mxCell id="eOHJWus52CCIsgXpMGxx-83" style="edgeStyle=orthogonalEdgeStyle;rounded=0;orthogonalLoop=1;jettySize=auto;html=1;entryX=0;entryY=0.5;entryDx=0;entryDy=0;" edge="1" parent="dNxyNK7c78bLwvsdeMH5-20" source="eOHJWus52CCIsgXpMGxx-78" target="eOHJWus52CCIsgXpMGxx-82">
          <mxGeometry relative="1" as="geometry">
            <mxPoint x="320" y="310" as="sourcePoint" />
            <mxPoint x="460" y="180" as="targetPoint" />
          </mxGeometry>
        </mxCell>
        <mxCell id="eOHJWus52CCIsgXpMGxx-84" value="Not OK" style="edgeStyle=orthogonalEdgeStyle;rounded=0;orthogonalLoop=1;jettySize=auto;html=1;entryX=1;entryY=0.5;entryDx=0;entryDy=0;" edge="1" parent="dNxyNK7c78bLwvsdeMH5-20" source="eOHJWus52CCIsgXpMGxx-82" target="eOHJWus52CCIsgXpMGxx-64">
          <mxGeometry relative="1" as="geometry">
            <mxPoint x="249" y="60" as="targetPoint" />
            <Array as="points">
              <mxPoint x="249" y="60" />
            </Array>
          </mxGeometry>
        </mxCell>
        <mxCell id="eOHJWus52CCIsgXpMGxx-85" style="edgeStyle=orthogonalEdgeStyle;rounded=0;orthogonalLoop=1;jettySize=auto;html=1;entryX=0.5;entryY=0;entryDx=0;entryDy=0;" edge="1" parent="dNxyNK7c78bLwvsdeMH5-20" source="eOHJWus52CCIsgXpMGxx-40" target="eOHJWus52CCIsgXpMGxx-43">
          <mxGeometry relative="1" as="geometry">
            <mxPoint x="340" y="170" as="targetPoint" />
          </mxGeometry>
        </mxCell>
        <mxCell id="eOHJWus52CCIsgXpMGxx-86" value="Not OK" style="edgeStyle=orthogonalEdgeStyle;rounded=0;orthogonalLoop=1;jettySize=auto;html=1;entryX=0.5;entryY=1;entryDx=0;entryDy=0;" edge="1" parent="dNxyNK7c78bLwvsdeMH5-20" source="eOHJWus52CCIsgXpMGxx-43" target="eOHJWus52CCIsgXpMGxx-40">
          <mxGeometry relative="1" as="geometry">
            <mxPoint x="490" y="215" as="targetPoint" />
          </mxGeometry>
        </mxCell>
        <mxCell id="eOHJWus52CCIsgXpMGxx-87" value="OK" style="edgeStyle=orthogonalEdgeStyle;rounded=0;orthogonalLoop=1;jettySize=auto;html=1;entryX=0.5;entryY=0;entryDx=0;entryDy=0;" edge="1" parent="dNxyNK7c78bLwvsdeMH5-20" source="eOHJWus52CCIsgXpMGxx-82" target="eOHJWus52CCIsgXpMGxx-40">
          <mxGeometry relative="1" as="geometry">
            <mxPoint x="340" y="120" as="targetPoint" />
          </mxGeometry>
        </mxCell>
        <mxCell id="dNxyNK7c78bLwvsdeMH5-21" value="Canal Server/cliente" style="swimlane;html=1;startSize=20;horizontal=0;" parent="dNxyNK7c78bLwvsdeMH5-19" vertex="1">
          <mxGeometry x="20" y="340" width="730" height="210" as="geometry" />
        </mxCell>
        <mxCell id="eOHJWus52CCIsgXpMGxx-13" style="edgeStyle=orthogonalEdgeStyle;rounded=0;orthogonalLoop=1;jettySize=auto;html=1;entryX=0;entryY=0.75;entryDx=0;entryDy=0;" edge="1" parent="dNxyNK7c78bLwvsdeMH5-21" source="eOHJWus52CCIsgXpMGxx-9" target="eOHJWus52CCIsgXpMGxx-29">
          <mxGeometry relative="1" as="geometry">
            <mxPoint x="160" y="80" as="targetPoint" />
          </mxGeometry>
        </mxCell>
        <mxCell id="eOHJWus52CCIsgXpMGxx-50" style="edgeStyle=orthogonalEdgeStyle;rounded=0;orthogonalLoop=1;jettySize=auto;html=1;" edge="1" parent="dNxyNK7c78bLwvsdeMH5-21" source="eOHJWus52CCIsgXpMGxx-9" target="eOHJWus52CCIsgXpMGxx-47">
          <mxGeometry relative="1" as="geometry" />
        </mxCell>
        <mxCell id="eOHJWus52CCIsgXpMGxx-9" value="inicio" style="ellipse;whiteSpace=wrap;html=1;fillColor=#d5e8d4;strokeColor=#82b366;" vertex="1" parent="dNxyNK7c78bLwvsdeMH5-21">
          <mxGeometry x="40" y="30" width="40" height="40" as="geometry" />
        </mxCell>
        <mxCell id="eOHJWus52CCIsgXpMGxx-29" value="&#xa;&#xa;&lt;span style=&quot;color: rgb(0, 0, 0); font-family: helvetica; font-size: 12px; font-style: normal; font-weight: 400; letter-spacing: normal; text-align: center; text-indent: 0px; text-transform: none; word-spacing: 0px; background-color: rgb(248, 249, 250); display: inline; float: none;&quot;&gt;Listar Produtos&lt;/span&gt;&#xa;&#xa;" style="rounded=1;whiteSpace=wrap;html=1;" vertex="1" parent="dNxyNK7c78bLwvsdeMH5-21">
          <mxGeometry x="160" y="20" width="90" height="40" as="geometry" />
        </mxCell>
        <mxCell id="eOHJWus52CCIsgXpMGxx-49" style="edgeStyle=orthogonalEdgeStyle;rounded=0;orthogonalLoop=1;jettySize=auto;html=1;" edge="1" parent="dNxyNK7c78bLwvsdeMH5-21" source="eOHJWus52CCIsgXpMGxx-47" target="eOHJWus52CCIsgXpMGxx-48">
          <mxGeometry relative="1" as="geometry" />
        </mxCell>
        <mxCell id="eOHJWus52CCIsgXpMGxx-47" value="Cadastrar Produto" style="rounded=1;whiteSpace=wrap;html=1;" vertex="1" parent="dNxyNK7c78bLwvsdeMH5-21">
          <mxGeometry x="40" y="110" width="90" height="40" as="geometry" />
        </mxCell>
        <mxCell id="eOHJWus52CCIsgXpMGxx-48" value="Dados Validados" style="shape=mxgraph.bpmn.shape;html=1;verticalLabelPosition=bottom;labelBackgroundColor=#ffffff;verticalAlign=top;align=center;perimeter=rhombusPerimeter;background=gateway;outlineConnect=0;outline=none;symbol=exclusiveGw;fillColor=#fff2cc;strokeColor=#d6b656;" vertex="1" parent="dNxyNK7c78bLwvsdeMH5-21">
          <mxGeometry x="230" y="105" width="50" height="50" as="geometry" />
        </mxCell>
        <mxCell id="eOHJWus52CCIsgXpMGxx-51" value="Not OK" style="edgeStyle=orthogonalEdgeStyle;rounded=0;orthogonalLoop=1;jettySize=auto;html=1;entryX=0.5;entryY=1;entryDx=0;entryDy=0;" edge="1" parent="dNxyNK7c78bLwvsdeMH5-21" source="eOHJWus52CCIsgXpMGxx-48" target="eOHJWus52CCIsgXpMGxx-47">
          <mxGeometry relative="1" as="geometry">
            <mxPoint x="90" y="190" as="targetPoint" />
            <Array as="points">
              <mxPoint x="255" y="190" />
              <mxPoint x="85" y="190" />
            </Array>
          </mxGeometry>
        </mxCell>
        <mxCell id="dNxyNK7c78bLwvsdeMH5-22" value="Canal Mobile" style="swimlane;html=1;startSize=20;horizontal=0;" parent="dNxyNK7c78bLwvsdeMH5-19" vertex="1">
          <mxGeometry x="20" y="550" width="730" height="300" as="geometry" />
        </mxCell>
        <mxCell id="eOHJWus52CCIsgXpMGxx-33" style="edgeStyle=orthogonalEdgeStyle;rounded=0;orthogonalLoop=1;jettySize=auto;html=1;entryX=0;entryY=0.5;entryDx=0;entryDy=0;" edge="1" parent="dNxyNK7c78bLwvsdeMH5-22" source="eOHJWus52CCIsgXpMGxx-10" target="eOHJWus52CCIsgXpMGxx-28">
          <mxGeometry relative="1" as="geometry" />
        </mxCell>
        <mxCell id="eOHJWus52CCIsgXpMGxx-55" style="edgeStyle=orthogonalEdgeStyle;rounded=0;orthogonalLoop=1;jettySize=auto;html=1;entryX=0.5;entryY=0;entryDx=0;entryDy=0;" edge="1" parent="dNxyNK7c78bLwvsdeMH5-22" source="eOHJWus52CCIsgXpMGxx-10" target="eOHJWus52CCIsgXpMGxx-54">
          <mxGeometry relative="1" as="geometry" />
        </mxCell>
        <mxCell id="eOHJWus52CCIsgXpMGxx-10" value="inicio" style="ellipse;whiteSpace=wrap;html=1;fillColor=#d5e8d4;strokeColor=#82b366;" vertex="1" parent="dNxyNK7c78bLwvsdeMH5-22">
          <mxGeometry x="30" y="20" width="40" height="40" as="geometry" />
        </mxCell>
        <mxCell id="eOHJWus52CCIsgXpMGxx-28" value="&#xa;&#xa;&lt;span style=&quot;color: rgb(0, 0, 0); font-family: helvetica; font-size: 12px; font-style: normal; font-weight: 400; letter-spacing: normal; text-align: center; text-indent: 0px; text-transform: none; word-spacing: 0px; background-color: rgb(248, 249, 250); display: inline; float: none;&quot;&gt;Listar Produtos&lt;/span&gt;&#xa;&#xa;" style="rounded=1;whiteSpace=wrap;html=1;" vertex="1" parent="dNxyNK7c78bLwvsdeMH5-22">
          <mxGeometry x="90" y="20" width="90" height="40" as="geometry" />
        </mxCell>
        <mxCell id="eOHJWus52CCIsgXpMGxx-53" value="Dados Validados" style="shape=mxgraph.bpmn.shape;html=1;verticalLabelPosition=bottom;labelBackgroundColor=#ffffff;verticalAlign=top;align=center;perimeter=rhombusPerimeter;background=gateway;outlineConnect=0;outline=none;symbol=exclusiveGw;fillColor=#fff2cc;strokeColor=#d6b656;" vertex="1" parent="dNxyNK7c78bLwvsdeMH5-22">
          <mxGeometry x="50" y="210" width="50" height="50" as="geometry" />
        </mxCell>
        <mxCell id="eOHJWus52CCIsgXpMGxx-56" style="edgeStyle=orthogonalEdgeStyle;rounded=0;orthogonalLoop=1;jettySize=auto;html=1;" edge="1" parent="dNxyNK7c78bLwvsdeMH5-22" source="eOHJWus52CCIsgXpMGxx-54" target="eOHJWus52CCIsgXpMGxx-53">
          <mxGeometry relative="1" as="geometry" />
        </mxCell>
        <mxCell id="eOHJWus52CCIsgXpMGxx-54" value="Cadastrar Produto" style="rounded=1;whiteSpace=wrap;html=1;" vertex="1" parent="dNxyNK7c78bLwvsdeMH5-22">
          <mxGeometry x="30" y="130" width="90" height="40" as="geometry" />
        </mxCell>
        <mxCell id="eOHJWus52CCIsgXpMGxx-57" value="Not OK" style="edgeStyle=orthogonalEdgeStyle;rounded=0;orthogonalLoop=1;jettySize=auto;html=1;entryX=1;entryY=0.5;entryDx=0;entryDy=0;" edge="1" parent="dNxyNK7c78bLwvsdeMH5-22" source="eOHJWus52CCIsgXpMGxx-53" target="eOHJWus52CCIsgXpMGxx-54">
          <mxGeometry relative="1" as="geometry">
            <mxPoint x="210" y="150" as="targetPoint" />
            <Array as="points">
              <mxPoint x="100" y="190" />
              <mxPoint x="140" y="190" />
              <mxPoint x="140" y="150" />
            </Array>
          </mxGeometry>
        </mxCell>
        <mxCell id="eOHJWus52CCIsgXpMGxx-2" value="API Produtos" style="swimlane;html=1;startSize=20;horizontal=0;" vertex="1" parent="1">
          <mxGeometry x="140" y="990" width="560" height="470" as="geometry" />
        </mxCell>
        <mxCell id="eOHJWus52CCIsgXpMGxx-61" style="edgeStyle=orthogonalEdgeStyle;rounded=0;orthogonalLoop=1;jettySize=auto;html=1;entryX=0.5;entryY=0;entryDx=0;entryDy=0;" edge="1" parent="eOHJWus52CCIsgXpMGxx-2" source="eOHJWus52CCIsgXpMGxx-4" target="eOHJWus52CCIsgXpMGxx-60">
          <mxGeometry relative="1" as="geometry" />
        </mxCell>
        <mxCell id="eOHJWus52CCIsgXpMGxx-4" value="Requisição cadastro" style="rounded=0;whiteSpace=wrap;html=1;fontFamily=Helvetica;fontSize=12;fontColor=#000000;align=center;" vertex="1" parent="eOHJWus52CCIsgXpMGxx-2">
          <mxGeometry x="274" y="90" width="80" height="60" as="geometry" />
        </mxCell>
        <mxCell id="eOHJWus52CCIsgXpMGxx-24" style="edgeStyle=orthogonalEdgeStyle;rounded=0;orthogonalLoop=1;jettySize=auto;html=1;entryX=0.5;entryY=0;entryDx=0;entryDy=0;" edge="1" parent="eOHJWus52CCIsgXpMGxx-2" source="eOHJWus52CCIsgXpMGxx-21" target="eOHJWus52CCIsgXpMGxx-23">
          <mxGeometry relative="1" as="geometry" />
        </mxCell>
        <mxCell id="eOHJWus52CCIsgXpMGxx-21" value="Requisição Listagem" style="rounded=0;whiteSpace=wrap;html=1;fontFamily=Helvetica;fontSize=12;fontColor=#000000;align=center;" vertex="1" parent="eOHJWus52CCIsgXpMGxx-2">
          <mxGeometry x="120" y="90" width="80" height="60" as="geometry" />
        </mxCell>
        <mxCell id="eOHJWus52CCIsgXpMGxx-23" value="stored procedure" style="image;html=1;image=img/lib/clip_art/computers/Database_128x128.png" vertex="1" parent="eOHJWus52CCIsgXpMGxx-2">
          <mxGeometry x="130" y="200" width="60" height="40" as="geometry" />
        </mxCell>
        <mxCell id="eOHJWus52CCIsgXpMGxx-60" value="stored procedure" style="image;html=1;image=img/lib/clip_art/computers/Database_128x128.png" vertex="1" parent="eOHJWus52CCIsgXpMGxx-2">
          <mxGeometry x="284" y="200" width="60" height="40" as="geometry" />
        </mxCell>
        <mxCell id="eOHJWus52CCIsgXpMGxx-88" value="" style="endArrow=classic;startArrow=classic;html=1;" edge="1" parent="eOHJWus52CCIsgXpMGxx-2" source="eOHJWus52CCIsgXpMGxx-60">
          <mxGeometry width="50" height="50" relative="1" as="geometry">
            <mxPoint x="450" y="300" as="sourcePoint" />
            <mxPoint x="450" y="220" as="targetPoint" />
            <Array as="points" />
          </mxGeometry>
        </mxCell>
        <mxCell id="eOHJWus52CCIsgXpMGxx-89" value="GravarLog" style="image;html=1;image=img/lib/clip_art/computers/Database_128x128.png" vertex="1" parent="eOHJWus52CCIsgXpMGxx-2">
          <mxGeometry x="440" y="200" width="60" height="40" as="geometry" />
        </mxCell>
        <mxCell id="eOHJWus52CCIsgXpMGxx-34" style="edgeStyle=orthogonalEdgeStyle;rounded=0;orthogonalLoop=1;jettySize=auto;html=1;entryX=0.5;entryY=0;entryDx=0;entryDy=0;" edge="1" parent="1" source="eOHJWus52CCIsgXpMGxx-28" target="eOHJWus52CCIsgXpMGxx-21">
          <mxGeometry relative="1" as="geometry">
            <Array as="points">
              <mxPoint x="275" y="760" />
              <mxPoint x="300" y="760" />
            </Array>
          </mxGeometry>
        </mxCell>
        <mxCell id="eOHJWus52CCIsgXpMGxx-35" style="edgeStyle=orthogonalEdgeStyle;rounded=0;orthogonalLoop=1;jettySize=auto;html=1;entryX=0.132;entryY=0.021;entryDx=0;entryDy=0;entryPerimeter=0;" edge="1" parent="1" source="eOHJWus52CCIsgXpMGxx-29" target="eOHJWus52CCIsgXpMGxx-21">
          <mxGeometry relative="1" as="geometry">
            <mxPoint x="270" y="1030" as="targetPoint" />
            <Array as="points">
              <mxPoint x="345" y="755" />
              <mxPoint x="350" y="755" />
              <mxPoint x="350" y="1000" />
              <mxPoint x="271" y="1000" />
            </Array>
          </mxGeometry>
        </mxCell>
        <mxCell id="eOHJWus52CCIsgXpMGxx-38" style="edgeStyle=orthogonalEdgeStyle;rounded=0;orthogonalLoop=1;jettySize=auto;html=1;entryX=0.75;entryY=0;entryDx=0;entryDy=0;" edge="1" parent="1" source="eOHJWus52CCIsgXpMGxx-30" target="eOHJWus52CCIsgXpMGxx-21">
          <mxGeometry relative="1" as="geometry">
            <mxPoint x="320" y="770" as="targetPoint" />
            <Array as="points">
              <mxPoint x="530" y="1010" />
              <mxPoint x="320" y="1010" />
            </Array>
          </mxGeometry>
        </mxCell>
        <mxCell id="eOHJWus52CCIsgXpMGxx-44" value="OK" style="edgeStyle=orthogonalEdgeStyle;rounded=0;orthogonalLoop=1;jettySize=auto;html=1;entryX=0.413;entryY=-0.018;entryDx=0;entryDy=0;entryPerimeter=0;" edge="1" parent="1" source="eOHJWus52CCIsgXpMGxx-43" target="eOHJWus52CCIsgXpMGxx-4">
          <mxGeometry relative="1" as="geometry">
            <mxPoint x="445" y="940" as="targetPoint" />
          </mxGeometry>
        </mxCell>
        <mxCell id="eOHJWus52CCIsgXpMGxx-52" value="OK" style="edgeStyle=orthogonalEdgeStyle;rounded=0;orthogonalLoop=1;jettySize=auto;html=1;entryX=0.75;entryY=0;entryDx=0;entryDy=0;" edge="1" parent="1" source="eOHJWus52CCIsgXpMGxx-48" target="eOHJWus52CCIsgXpMGxx-4">
          <mxGeometry relative="1" as="geometry">
            <mxPoint x="470" y="540" as="targetPoint" />
          </mxGeometry>
        </mxCell>
        <mxCell id="eOHJWus52CCIsgXpMGxx-58" value="OK" style="edgeStyle=orthogonalEdgeStyle;rounded=0;orthogonalLoop=1;jettySize=auto;html=1;entryX=0.158;entryY=-0.005;entryDx=0;entryDy=0;entryPerimeter=0;exitX=0.5;exitY=1;exitDx=0;exitDy=0;" edge="1" parent="1" source="eOHJWus52CCIsgXpMGxx-53" target="eOHJWus52CCIsgXpMGxx-4">
          <mxGeometry relative="1" as="geometry">
            <mxPoint x="410" y="855" as="targetPoint" />
            <Array as="points">
              <mxPoint x="215" y="960" />
              <mxPoint x="427" y="960" />
            </Array>
          </mxGeometry>
        </mxCell>
        <mxCell id="eOHJWus52CCIsgXpMGxx-65" value="" style="endArrow=classic;startArrow=classic;html=1;exitX=0.5;exitY=0;exitDx=0;exitDy=0;entryX=0.5;entryY=1;entryDx=0;entryDy=0;" edge="1" parent="1" source="eOHJWus52CCIsgXpMGxx-64" target="eOHJWus52CCIsgXpMGxx-75">
          <mxGeometry width="50" height="50" relative="1" as="geometry">
            <mxPoint x="450" y="181" as="sourcePoint" />
            <mxPoint x="300" y="70" as="targetPoint" />
            <Array as="points">
              <mxPoint x="300" y="100" />
            </Array>
          </mxGeometry>
        </mxCell>
        <mxCell id="eOHJWus52CCIsgXpMGxx-66" value="Serviço Externo&lt;br&gt;" style="swimlane;html=1;startSize=20;horizontal=0;" vertex="1" parent="1">
          <mxGeometry x="140" y="-50" width="260" height="140" as="geometry" />
        </mxCell>
        <mxCell id="eOHJWus52CCIsgXpMGxx-75" value="Autenticador" style="shape=image;html=1;verticalAlign=top;verticalLabelPosition=bottom;labelBackgroundColor=#ffffff;imageAspect=0;aspect=fixed;image=https://cdn3.iconfinder.com/data/icons/logos-brands-3/24/logo_brand_brands_logos_Google_Authenticator-128.png" vertex="1" parent="eOHJWus52CCIsgXpMGxx-66">
          <mxGeometry x="140" y="40" width="40" height="40" as="geometry" />
        </mxCell>
      </root>
    </mxGraphModel>
  </diagram>
</mxfile>
